<svg width="32" height="31" viewBox="0 0 32 31" fill="none" xmlns="http://www.w3.org/2000/svg">
<path id="Vector" d="M30.9668 21.6212C30.7668 21.7142 30.5641 21.8043 30.3529 21.8691C30.1727 21.9254 30.1023 21.8437 30.1361 21.6522C30.1445 21.6043 30.1614 21.5593 30.1642 21.5142C30.1698 21.4269 30.1642 21.3368 30.1642 21.2495C30.1529 21.2467 30.1417 21.2439 30.1332 21.2411C30.1023 21.3002 30.0741 21.3594 30.0431 21.4185C29.9896 21.5255 29.9446 21.6381 29.8826 21.7395C29.8094 21.8578 29.7277 21.8888 29.5926 21.8522C29.3194 21.7761 29.066 21.655 28.8604 21.4523C28.4324 21.0327 28.3141 20.5089 28.3676 19.9373C28.3986 19.6106 28.469 19.2896 28.4943 18.9629C28.5535 18.1942 28.3338 17.5155 27.7875 16.9579C27.4552 16.6172 27.0525 16.3863 26.6161 16.2089C26.495 16.161 26.4077 16.085 26.3542 15.9639C26.3035 15.8484 26.2472 15.7302 26.1796 15.6232C25.1405 13.9786 23.6452 13.2296 21.7106 13.3675C21.4402 13.3873 21.2065 13.3507 20.97 13.2211C20.4631 12.9423 20.0097 12.596 19.6324 12.1567C19.4184 11.9089 19.2297 11.6413 19.0326 11.3766C19.0016 11.3344 19.0044 11.2696 18.9931 11.2161C19.0466 11.2077 19.103 11.1852 19.1537 11.1936C19.5028 11.2555 19.8351 11.2133 20.159 11.0725C20.3364 10.9965 20.3955 11.0021 20.5222 11.1485C20.6405 11.2865 20.756 11.4273 20.8658 11.5738C21.1051 11.8948 21.3867 12.1736 21.7106 12.4073C22.2822 12.8156 22.9102 13.0099 23.6142 12.9226C24.1014 12.8635 24.5266 12.6607 24.9067 12.351C25.0194 12.2609 25.1348 12.1623 25.2644 12.1088C25.4643 12.0243 25.6783 11.968 25.8867 11.9089C26.9821 11.6076 27.8466 12.3341 27.8945 13.3422C27.8973 13.4267 27.9086 13.514 27.917 13.5985C27.9283 13.6041 27.9424 13.6069 27.9537 13.6125C27.9818 13.5619 28.0184 13.5112 28.0353 13.4548C28.1339 13.1423 28.1423 12.8241 28.0804 12.503C27.979 11.9652 27.7115 11.5484 27.199 11.3175C27.1004 11.2724 26.9906 11.2499 26.892 11.2077C26.8554 11.1936 26.8273 11.157 26.7963 11.1316C26.8273 11.1063 26.8582 11.0781 26.8948 11.0556C26.9117 11.0443 26.9371 11.0415 26.9568 11.0387C27.2159 10.9824 27.4777 10.9796 27.7396 11.0275C28.7675 11.2161 29.5729 12.1313 29.6404 13.1761C29.6489 13.2859 29.6658 13.3957 29.677 13.5055C29.6855 13.5055 29.6968 13.5055 29.7052 13.5083C29.7221 13.4717 29.7475 13.4351 29.7559 13.3957C29.8967 12.7734 29.8432 12.1736 29.556 11.5991C29.0463 10.5853 27.6495 9.75181 26.2049 10.377C25.8107 10.5487 25.4277 10.743 25.0391 10.9261C24.7631 11.0556 24.704 11.0275 24.6251 10.7346C24.535 10.3939 24.4674 10.0447 24.3604 9.70957C24.1718 9.11821 23.8057 8.68173 23.1918 8.48742C22.7835 8.35789 22.3808 8.38041 21.9781 8.52121C21.7894 8.58598 21.7416 8.5719 21.6345 8.40294C21.6008 8.34944 21.5698 8.29875 21.536 8.24525C21.2093 7.74118 20.7841 7.34694 20.2575 7.06253C19.7028 6.76403 19.1058 6.64294 18.4806 6.63449C18.4046 6.63449 18.3314 6.60915 18.2553 6.59789C18.2525 6.58381 18.2497 6.57254 18.2469 6.55846C18.2891 6.51622 18.3257 6.46835 18.3764 6.43737C19.0973 5.94176 19.5507 5.26592 19.7506 4.41549C19.7929 4.23808 19.8267 4.05504 19.9027 3.89171C20.1392 3.37075 20.8066 3.26656 21.1812 3.68333C21.4093 3.93677 21.4515 4.30003 21.2685 4.6295C20.8461 5.38419 21.0826 6.22899 21.6543 6.74713C22.2428 7.27936 22.9496 7.41453 23.7128 7.3216C24.076 7.27654 24.4365 7.18643 24.7997 7.12729C25.4502 7.0231 26.0106 7.19206 26.4386 7.70739C26.6977 8.01715 26.9343 8.34662 27.1849 8.66483C27.4271 8.96614 27.7143 9.20832 28.0832 9.34067C28.3986 9.45613 28.7224 9.47021 29.0519 9.43923C29.8291 9.36883 30.3754 8.97177 30.7021 8.26777C30.7331 8.19737 30.7471 8.12134 30.7697 8.04813C30.7584 8.04249 30.7499 8.03686 30.7387 8.03123C30.7133 8.05376 30.688 8.07629 30.6598 8.096C30.4768 8.2368 30.3078 8.40576 30.1051 8.51558C28.959 9.14355 27.8664 8.27622 27.7284 7.4624C27.6749 7.15264 27.6777 6.83161 27.6495 6.51622C27.6354 6.36416 27.6355 6.20646 27.5904 6.06285C27.3848 5.42361 26.7034 5.08569 26.0078 5.26592C25.7093 5.34477 25.4418 5.4912 25.1771 5.65171C24.949 5.78969 24.7209 5.92486 24.459 5.98963C23.8592 6.13888 23.3523 5.90515 23.1496 5.37574C23.0228 5.04627 23.0566 4.7168 23.1946 4.39578C23.4283 3.86074 23.4875 3.30317 23.4312 2.72589C23.3073 1.50656 22.4822 0.498432 21.3051 0.15488C21.0685 0.08448 20.8235 0.050688 20.5814 0H20.0773C20.0548 0.005632 20.0294 0.016896 20.0069 0.019712C19.5535 0.061952 19.1311 0.199936 18.7312 0.413952C18.3595 0.613888 17.9963 0.83072 17.6246 1.03066C17.067 1.33197 16.4756 1.52627 15.8364 1.55443C15.1549 1.58541 14.4819 1.50938 13.8258 1.31789C12.8148 1.02502 11.7926 0.833536 10.7366 0.867328C10.2213 0.881408 9.71159 0.934912 9.20753 1.0391C7.3546 1.41926 5.77482 2.29222 4.48509 3.67488C3.09398 5.16454 2.31396 6.93581 2.11402 8.96051C2.03799 9.72928 2.08586 10.498 2.21539 11.2584C2.46602 12.7396 3.05739 14.0715 3.98949 15.2486C4.32459 15.671 4.69067 16.0568 5.09336 16.4145C5.23134 16.5355 5.2257 16.5947 5.07082 16.6989C5.06237 16.7045 5.05112 16.7101 5.04267 16.7158C4.39217 17.1466 4.08803 17.7577 4.11619 18.5321C4.12183 18.7011 4.07959 18.7405 3.90781 18.7405C3.66845 18.7433 3.42346 18.7377 3.18974 18.7771C1.98449 18.977 1.06083 19.8866 0.824287 21.0862C0.593375 22.2577 1.13405 23.477 2.16753 24.1106C2.74762 24.4654 3.39531 24.5865 4.05707 24.6175C4.53579 24.6372 5.01732 24.6175 5.49886 24.5949C6.20286 24.564 6.82801 24.7414 7.34052 25.237C7.64183 25.527 7.86712 25.879 8.08677 26.231C8.35147 26.6506 8.59928 27.0815 8.89214 27.4785C9.5004 28.3149 10.3396 28.6049 11.3449 28.4247C11.6237 28.374 11.8912 28.2754 12.1643 28.1994C12.9049 27.9938 13.5385 28.1656 14.0539 28.7429C14.22 28.9316 14.3805 29.1231 14.5495 29.3117C15.3915 30.2607 16.5939 30.3649 17.6161 29.6863C17.6555 29.6609 17.6865 29.6243 17.7203 29.5905C17.7147 29.5821 17.709 29.5708 17.7062 29.5624C17.6583 29.5624 17.6077 29.5624 17.5598 29.5708C17.3937 29.5933 17.2303 29.6299 17.0642 29.6412C16.3658 29.6891 15.7576 29.5032 15.3042 28.94C15.0789 28.6584 14.9522 28.3318 14.848 27.991C14.6987 27.5123 14.4087 27.1575 13.9272 26.9773C13.578 26.8477 13.2203 26.8393 12.8599 26.9069C12.4178 26.9914 11.9813 27.0702 11.5279 27.028C10.8774 26.9688 10.4184 26.5999 10.2748 25.9635C10.2157 25.7016 10.2072 25.4313 10.1875 25.161C10.1424 24.6147 10.058 24.0768 9.85521 23.5615C9.50321 22.6716 8.88651 22.0718 7.93189 21.8719C7.70379 21.824 7.46443 21.8155 7.22789 21.8071C7.01669 21.7987 6.9688 21.7339 7.0561 21.548C7.10679 21.4438 7.13778 21.3284 7.1941 21.227C7.25042 21.12 7.30673 21.0017 7.39402 20.9229C8.00228 20.3738 8.726 20.0668 9.53138 19.9542C9.88901 19.9035 10.2523 19.9091 10.6071 19.8612C11.3477 19.7627 12.0235 19.4952 12.6149 19.0333C12.981 18.7489 13.2598 18.38 13.5385 18.0139C13.8399 17.6169 14.1299 17.2086 14.3355 16.7496C14.3636 16.6876 14.3777 16.6172 14.4002 16.5524C14.3805 16.5384 14.3608 16.5243 14.3439 16.5102C14.3298 16.544 14.3214 16.5834 14.2989 16.6088C13.8821 17.0706 13.4681 17.538 13.0401 17.9914C12.5614 18.4983 11.9616 18.7743 11.2688 18.8503C10.7225 18.9094 10.2382 18.7968 9.83269 18.3969C9.48069 18.0477 9.10335 17.7239 8.7429 17.386C8.17125 16.8481 7.57426 16.3356 7.08709 15.7189C6.77733 15.3275 6.49291 14.9163 6.21694 14.4996C5.87057 13.9702 5.76919 13.3619 5.7016 12.7452C5.65373 12.3087 5.53828 11.8976 5.26513 11.5371C5.15249 11.3879 5.05956 11.2161 4.98071 11.0472C4.56957 10.1629 4.39218 9.23929 4.55269 8.27059C4.78642 6.84851 5.60587 5.81785 6.78859 5.04909C6.87026 4.99558 6.95755 4.98713 7.04766 5.02656C7.15185 5.0688 7.25604 5.11104 7.36305 5.15046C7.84177 5.3335 8.32612 5.38701 8.833 5.26592C9.13713 5.1927 9.44689 5.13638 9.75383 5.08569C10.3367 4.98995 10.8915 5.06598 11.4068 5.37574C11.725 5.56723 12.0179 5.78969 12.2713 6.05721C13.2203 7.05689 13.8905 8.22553 14.3439 9.51808C14.5467 10.0954 14.679 10.6923 14.6987 11.3119C14.7325 12.3482 15.0367 13.2887 15.7576 14.0631C15.8364 14.1476 15.8618 14.2433 15.8533 14.3531C15.8223 14.6911 15.7998 15.029 15.7604 15.3669C15.6393 16.3779 15.4647 17.3775 15.2169 18.3631C14.8959 19.6388 14.541 20.906 13.975 22.0971C13.73 22.6125 13.4512 23.1137 13.1894 23.6206C13.1556 23.6854 13.1274 23.7501 13.0992 23.8149C13.1077 23.8205 13.1161 23.8234 13.1246 23.829C13.1612 23.798 13.1978 23.7727 13.2288 23.7389C13.4259 23.5192 13.623 23.2996 13.8117 23.0715C13.9469 22.9082 14.068 22.7364 14.1919 22.5646C14.2848 22.4379 14.3439 22.4351 14.4284 22.5646C14.4538 22.604 14.4763 22.6463 14.5016 22.6857C14.9325 23.3784 15.352 24.0796 15.8026 24.7583C16.1574 25.2933 16.5714 25.7889 17.0811 26.1888C18.6918 27.4644 21.0207 27.5827 22.7722 26.4873C23.4509 26.0621 23.9915 25.4989 24.4562 24.8512C24.597 24.6541 24.5829 24.6175 24.3407 24.5921C23.969 24.5527 23.6283 24.4203 23.3044 24.2345C22.8454 23.9698 22.4878 23.5924 22.1302 23.2095C21.781 22.8378 21.4374 22.4604 21.0657 22.1112C20.694 21.762 20.2322 21.5875 19.7225 21.5424C19.5986 21.5311 19.5113 21.5649 19.4437 21.6832C18.9594 22.5195 18.2075 22.987 17.2923 23.2207C17.2388 23.2348 17.1824 23.2264 17.1261 23.2292C17.1205 23.2151 17.1149 23.201 17.1092 23.1841C17.1796 23.1363 17.2472 23.0799 17.3232 23.0405C17.7231 22.8237 18.0892 22.5562 18.3933 22.2182C19.3874 21.12 19.745 19.881 19.2184 18.4476C19.1959 18.3857 19.2072 18.3096 19.2043 18.2392C19.2719 18.2477 19.3479 18.2392 19.4099 18.2646C19.776 18.3997 20.1477 18.4814 20.5391 18.4842C20.9362 18.4899 21.322 18.411 21.7049 18.3181C22.2738 18.1801 22.8173 18.242 23.3101 18.5687C24.0282 19.0446 24.397 19.712 24.3295 20.585C24.3013 20.9595 24.2816 21.3312 24.3464 21.7057C24.7153 23.7839 26.7343 24.5048 28.1733 24.0233C28.821 23.8065 29.3194 23.3953 29.6714 22.8124C29.7672 22.6547 29.8798 22.5336 30.0628 22.4914C30.0938 22.4829 30.1248 22.4717 30.1558 22.4604C30.5979 22.2746 30.9443 21.9845 31.1836 21.5677C31.2061 21.5283 31.2146 21.4804 31.2287 21.4354C31.1245 21.4804 31.0541 21.5508 30.9668 21.5903V21.6212ZM22.5047 10.0644C22.5554 10.039 22.623 10.0137 22.6765 10.025C23.0763 10.1151 23.4114 10.3009 23.6086 10.6811C23.6564 10.774 23.693 10.8726 23.7465 10.9937C23.7043 11.0218 23.6705 11.0584 23.6311 11.0641C23.586 11.0697 23.5382 11.0556 23.4931 11.0415C23.0454 10.8951 22.7384 10.5825 22.5188 10.1827C22.4991 10.1489 22.4934 10.07 22.5075 10.0644H22.5047ZM28.2606 22.5928C28.1677 22.5928 28.0719 22.5928 27.979 22.5787C27.3257 22.4717 26.388 21.8409 26.2866 20.8271C26.281 20.7624 26.2781 20.6948 26.2753 20.63C26.2669 20.3569 26.357 20.1062 26.4302 19.85C26.4724 19.7064 26.5006 19.5599 26.5457 19.4163C26.5626 19.3656 26.6076 19.3262 26.6414 19.2811C26.6808 19.3206 26.7428 19.3515 26.7569 19.3994C26.8104 19.5825 26.8667 19.7711 26.8892 19.9598C26.9258 20.2414 26.9146 20.5286 26.9568 20.8074C27.0723 21.5424 27.4862 22.0634 28.1395 22.4013C28.1874 22.4266 28.2381 22.4491 28.2831 22.4801C28.3028 22.4914 28.3282 22.5252 28.3226 22.5393C28.3141 22.5618 28.2831 22.5899 28.2634 22.5899L28.2606 22.5928Z" fill="#6DB680"/>
</svg>
